# xmcd
#
# Track frame offsets: 
#        150
#        30554
#        62051
#        91556
#        115955
#        144436
#        171454
#        201454
#        223450
#
# Disc length: 3335 seconds
#
# Revision: 0
# Processed by: cddbd v1.5.2PL0 Copyright (c) Steve Scherf et al.
# Submitted via: ExactAudioCopy v1.3
#
DISCID=870d0509
DTITLE=Corey Stevens - Rumors In The Ether
DYEAR=2014
DGENRE=Blues Rock
TTITLE0=Red White And Blues
TTITLE1=Down In The Gutter
TTITLE2=Operation Dynamite
TTITLE3=To Be A Kid Again
TTITLE4=Don't Drone Me Bro
TTITLE5=You Used To Be Cool
TTITLE6=Rumors In The Ether
TTITLE7=Slim Dog And The Millionaires
TTITLE8=Wiki Diki Doo
EXTD=
EXTT0=
EXTT1=
EXTT2=
EXTT3=
EXTT4=
EXTT5=
EXTT6=
EXTT7=
EXTT8=
PLAYORDER=
